<?xml version="1.0" ?><!DOCTYPE svg  PUBLIC '-//W3C//DTD SVG 1.1//EN'  'http://www.w3.org/Graphics/SVG/1.1/DTD/svg11.dtd'><svg height="100%" style="fill-rule:evenodd;clip-rule:evenodd;stroke-linejoin:round;stroke-miterlimit:2;" version="1.1" viewBox="0 0 512 512" width="100%" xml:space="preserve" xmlns="http://www.w3.org/2000/svg" xmlns:serif="http://www.serif.com/" xmlns:xlink="http://www.w3.org/1999/xlink"><path d="M256,0c141.29,0 256,114.71 256,256c0,141.29 -114.71,256 -256,256c-141.29,0 -256,-114.71 -256,-256c0,-141.29 114.71,-256 256,-256Zm111.318,382.077c2.368,0 3.776,-1.057 4.436,-3.315c0.766,-2.603 1.323,-5.078 1.873,-7.598c1.512,-6.924 2.494,-10.226 5.028,-10.615c31.018,-4.793 39.885,-11.316 41.852,-15.916c0.286,-0.654 0.448,-1.327 0.488,-1.994c0.096,-1.783 -1.161,-3.352 -2.922,-3.643c-47.685,-7.858 -69.042,-56.561 -69.928,-58.628c-0.023,-0.061 -0.052,-0.116 -0.079,-0.173c-2.916,-5.915 -3.488,-11.044 -1.701,-15.248c3.268,-7.707 13.934,-11.092 21.003,-13.336c1.735,-0.549 3.373,-1.07 4.654,-1.573c12.365,-4.885 14.885,-9.849 14.823,-13.15c-0.067,-3.507 -3.203,-6.863 -7.991,-8.559l-0.102,-0.042c-1.686,-0.703 -3.717,-1.09 -5.72,-1.09c-1.311,0 -3.238,0.17 -4.972,0.98c-5.919,2.772 -11.313,4.268 -16.005,4.448l-0.007,0c-6.175,-0.236 -8.909,-2.869 -9.25,-3.216c0.159,-2.918 0.35,-5.966 0.547,-9.102l0.059,-0.979c1.422,-22.518 3.185,-50.542 -3.946,-66.535c-21.38,-47.936 -66.791,-51.666 -80.201,-51.666l-0.792,0.004c0,0 -5.522,0.059 -5.865,0.059c-13.378,0 -58.692,3.722 -80.06,51.633c-7.13,15.983 -5.371,43.984 -3.951,66.519c0.22,3.477 0.435,6.845 0.608,10.071c-0.363,0.376 -3.336,3.238 -10.148,3.238c-4.93,0 -10.642,-1.504 -16.981,-4.474c-1.09,-0.509 -2.386,-0.77 -3.857,-0.77c-5.368,0 -12.004,3.461 -12.949,8.427c-0.553,2.915 0.62,8.632 14.711,14.204c1.292,0.51 2.93,1.027 4.657,1.573c7.063,2.24 17.732,5.629 21.002,13.337c1.785,4.207 1.214,9.339 -1.703,15.251c-0.027,0.057 -0.053,0.112 -0.077,0.169c-0.888,2.069 -22.262,50.786 -69.927,58.635c-1.759,0.287 -3.02,1.86 -2.919,3.639c0.037,0.658 0.196,1.321 0.477,1.984c1.979,4.634 10.853,11.165 41.86,15.953c2.661,0.409 3.644,4.313 5.03,10.66c0.538,2.467 1.097,5.017 1.869,7.649c0.889,3.039 2.936,3.447 4.825,3.447c1.807,0 4.186,-0.464 6.943,-1.003c4.536,-0.887 10.75,-2.103 18.627,-2.103c4.373,0 8.898,0.382 13.443,1.134c9.316,1.551 17.222,7.141 25.601,13.06c12.133,8.58 24.681,17.45 44.231,17.45c0.557,0 1.114,-0.024 1.647,-0.065l0.002,0c0.836,0.04 1.671,0.065 2.522,0.065c19.555,0 32.101,-8.87 44.259,-17.468c8.363,-5.912 16.264,-11.491 25.57,-13.042c4.547,-0.752 9.075,-1.134 13.449,-1.134c7.491,0 13.379,0.946 18.63,1.973c2.961,0.581 5.297,0.875 6.941,0.875l0.386,0Z" style="fill:#333333;fill-opacity:1"/></svg>