<?xml version="1.0" standalone="no"?>
<!DOCTYPE svg PUBLIC "-//W3C//DTD SVG 20010904//EN"
 "http://www.w3.org/TR/2001/REC-SVG-20010904/DTD/svg10.dtd">
<svg version="1.0" xmlns="http://www.w3.org/2000/svg"
 width="292.000000pt" height="292.000000pt" viewBox="0 0 292.000000 292.000000"
 preserveAspectRatio="xMidYMid meet">
<metadata>
Created by potrace 1.11, written by Peter Selinger 2001-2013
</metadata>
<g transform="translate(0.000000,292.000000) scale(0.100000,-0.100000)"
fill="#000000" stroke="none">
<path d="M61 1470 l0 -1280 295 0 c162 0 294 3 294 8 0 4 1 402 1 885 1 482 4
877 8 877 4 0 69 -231 145 -512 75 -282 183 -681 238 -886 l102 -372 250 2
251 3 31 120 c17 66 59 228 93 360 34 132 64 247 66 255 22 98 273 1047 275
1040 1 -3 2 -403 3 -890 l2 -885 366 -3 365 -2 1 1280 0 1280 -516 0 -516 0
-48 -182 c-27 -101 -50 -190 -52 -198 -2 -8 -24 -94 -49 -190 -25 -96 -71
-272 -102 -390 -31 -118 -67 -253 -79 -300 -13 -48 -25 -79 -29 -70 -5 13
-122 437 -185 670 -27 101 -170 621 -177 643 -5 16 -39 17 -519 17 l-514 0 0
-1280z m596 508 c-3 -8 -6 -5 -6 6 -1 11 2 17 5 13 3 -3 4 -12 1 -19z"/>
</g>
</svg>
